External Loads File
version=1
nRows=93
nColumns=13
Range=5.000000e-03-10 seconds
endheader
time 	forceRightX 	forceRightY 	forceRightZ 	pointRightX 	pointRightY 	pointRightZ 	forceLeftX 	forceLeftY 	forceLeftZ 	pointLeftX 	pointLeftY 	pointLeftZ 		
5.005000 -129.764155 -52.357789 -0.000000 0.269308 0.453666 -0.109890 265.677534 1392.766491 -0.000000 0.359873 0.143915 -0.356164
5.010000 -134.622611 -44.003787 -0.000000 0.278983 0.458281 -0.109423 291.270780 1350.065856 -0.000000 0.351342 0.139534 -0.356058
5.015000 -137.282310 -33.955796 -0.000000 0.288129 0.462232 -0.110487 309.740030 1293.096744 -0.000000 0.342753 0.135640 -0.356029
5.020000 -137.951050 -21.890154 -0.000000 0.297817 0.465662 -0.110821 324.074367 1221.586750 -0.000000 0.334149 0.132574 -0.355970
5.025000 -136.693658 -8.269941 -0.000000 0.307390 0.468428 -0.111122 331.462410 1137.001549 -0.000000 0.325509 0.129894 -0.355928
5.030000 -133.641291 6.722911 -0.000000 0.317463 0.470741 -0.111103 333.014521 1040.234547 -0.000000 0.316983 0.127929 -0.355875
5.035000 -128.901602 22.378293 -0.000000 0.327323 0.472129 -0.110837 326.693286 933.607055 -0.000000 0.308484 0.126708 -0.355733
5.040000 -122.632953 38.278130 -0.000000 0.337162 0.473127 -0.111064 313.717430 818.940930 -0.000000 0.299944 0.126271 -0.355422
5.045000 -115.201329 53.662117 -0.000000 0.346241 0.473545 -0.110767 292.908283 699.427230 -0.000000 0.291476 0.126535 -0.355202
5.050000 -106.788334 68.712524 -0.000000 0.355521 0.473437 -0.110866 267.997969 576.684931 -0.000000 0.282893 0.127532 -0.355061
5.055000 -97.848066 83.310728 -0.000000 0.364307 0.472662 -0.110690 238.865665 454.032571 -0.000000 0.274233 0.129350 -0.354874
5.060000 -88.763779 97.916264 -0.000000 0.372722 0.471341 -0.110426 206.995800 334.125676 -0.000000 0.265602 0.131769 -0.354755
5.065000 -79.810834 113.354643 -0.000000 0.380910 0.469365 -0.110042 173.933987 219.258656 -0.000000 0.257036 0.134861 -0.354608
5.070000 -71.315042 130.557183 -0.000000 0.388485 0.466967 -0.109668 140.610893 111.595433 -0.000000 0.248422 0.138604 -0.354373
5.075000 -63.289228 150.655130 -0.000000 0.395732 0.463838 -0.109107 108.008897 12.609415 -0.000000 0.239928 0.143055 -0.354149
5.080000 -54.943100 174.855521 -0.000000 0.402441 0.460069 -0.108576 76.135151 -76.639691 -0.000000 0.231586 0.151865 -0.354095
5.085000 -47.798818 203.298341 -0.000000 0.408830 0.455426 -0.108643 45.492857 -153.933687 -0.000000 0.223756 0.157509 -0.354318
5.090000 -42.057936 236.401713 -0.000000 0.414507 0.450138 -0.108159 17.074491 -218.398507 -0.000000 0.216574 0.162203 -0.354666
5.095000 -38.441413 273.950730 -0.000000 0.419694 0.444289 -0.107284 -8.056276 -269.302671 -0.000000 0.210051 0.165407 -0.354879
5.100000 -34.799875 315.590447 -0.000000 0.424621 0.437787 -0.106051 -31.831408 -306.221942 -0.000000 0.203883 0.171663 -0.354880
5.105000 -31.905573 360.130046 -0.000000 0.429035 0.430362 -0.105449 -53.067511 -329.306315 -0.000000 0.197550 0.178426 -0.353265
5.110000 -30.901503 406.312574 -0.000000 0.433098 0.422777 -0.105263 -70.026193 -339.692352 -0.000000 0.191849 0.185886 -0.353208
5.115000 -31.171736 453.127252 -0.000000 0.437307 0.414656 -0.105832 -82.612792 -338.787836 -0.000000 0.186423 0.193841 -0.353235
5.120000 -33.288389 499.685475 -0.000000 0.440955 0.405737 -0.106342 -89.904849 -328.463162 -0.000000 0.181359 0.202167 -0.353135
5.125000 -36.915788 545.430510 -0.000000 0.444104 0.396051 -0.106167 -91.948795 -310.573584 -0.000000 0.176815 0.210979 -0.353017
5.130000 -41.996656 589.995933 -0.000000 0.446948 0.385968 -0.105540 -88.816797 -287.105951 -0.000000 0.172765 0.220035 -0.353028
5.135000 -47.916895 633.159425 -0.000000 0.449604 0.375637 -0.105580 -81.113837 -259.976917 -0.000000 0.169161 0.229282 -0.353114
5.140000 -54.007280 674.771463 -0.000000 0.451773 0.364932 -0.106074 -69.656424 -231.038149 -0.000000 0.166167 0.238738 -0.353240
5.145000 -60.494093 714.726846 -0.000000 0.453370 0.354140 -0.106559 -55.182904 -202.053971 -0.000000 0.163769 0.248206 -0.353555
5.150000 -65.984549 753.196082 -0.000000 0.454370 0.343287 -0.106768 -39.070987 -174.427509 -0.000000 0.161981 0.258069 -0.353906
5.155000 -69.714578 790.393248 -0.000000 0.454885 0.332237 -0.106601 -22.426400 -149.486299 -0.000000 0.160899 0.268187 -0.354100
5.160000 -71.233396 826.507060 -0.000000 0.454893 0.321128 -0.106550 -6.281719 -128.303349 -0.000000 0.160352 0.278563 -0.354240
5.165000 -70.156228 861.657574 -0.000000 0.454404 0.310042 -0.106587 8.386038 -111.476386 -0.000000 0.160409 0.289205 -0.354666
5.170000 -66.256640 895.876271 -0.000000 0.453515 0.298863 -0.106422 20.757419 -99.035628 -0.000000 0.161063 0.299890 -0.354751
5.175000 -60.408498 929.071840 -0.000000 0.452010 0.287984 -0.106413 30.341156 -90.493673 -0.000000 0.162469 0.310588 -0.354777
5.180000 -51.569379 961.251287 -0.000000 0.450185 0.277196 -0.106139 36.744345 -85.146198 -0.000000 0.164524 0.321326 -0.354574
5.185000 -38.317994 992.334998 -0.000000 0.447542 0.266344 -0.106635 39.871704 -82.299229 -0.000000 0.167287 0.332179 -0.354388
5.190000 -22.359167 1022.022793 -0.000000 0.444525 0.255692 -0.106567 40.069184 -81.215775 -0.000000 0.170615 0.342937 -0.354082
5.195000 -3.730924 1050.046257 -0.000000 0.441019 0.245200 -0.106411 37.624732 -81.300163 -0.000000 0.174463 0.353537 -0.353833
5.200000 16.910034 1076.028766 -0.000000 0.436747 0.235133 -0.106122 32.940789 -81.980780 -0.000000 0.178889 0.363891 -0.353441
5.205000 39.643087 1099.513070 -0.000000 0.431951 0.225552 -0.106094 26.401709 -82.756561 -0.000000 0.184000 0.374103 -0.353252
5.210000 63.478105 1120.033487 -0.000000 0.426571 0.216305 -0.106173 18.500912 -83.199159 -0.000000 0.189505 0.383869 -0.352961
5.215000 88.763494 1137.056491 -0.000000 0.420576 0.207424 -0.106260 9.613685 -83.055712 -0.000000 0.195516 0.393265 -0.352810
5.220000 114.737936 1150.064470 -0.000000 0.414170 0.198892 -0.106253 0.108359 -82.144253 -0.000000 0.202051 0.402214 -0.352614
5.225000 140.265339 1158.567443 -0.000000 0.407439 0.190877 -0.106388 -9.714212 -80.315623 -0.000000 0.209078 0.410644 -0.352607
5.230000 168.327593 1161.511581 -0.000000 0.400205 0.183325 -0.106584 -19.858990 -77.373787 -0.000000 0.217179 0.418734 -0.354277
5.235000 192.316450 1159.089538 -0.000000 0.392667 0.176089 -0.106701 -29.658638 -73.242135 -0.000000 0.224532 0.426390 -0.352429
5.240000 217.524752 1149.689702 -0.000000 0.384841 0.169516 -0.106570 -39.214158 -67.630872 -0.000000 0.232823 0.433965 -0.352477
5.245000 240.788928 1132.840466 -0.000000 0.376759 0.163364 -0.106451 -48.065835 -60.435398 -0.000000 0.241574 0.440497 -0.353130
5.250000 260.478433 1107.919751 -0.000000 0.368524 0.157905 -0.106387 -55.898792 -51.617513 -0.000000 0.250561 0.445847 -0.352389
5.255000 278.124964 1073.724388 -0.000000 0.360105 0.152985 -0.106209 -62.590732 -41.011819 -0.000000 0.259650 0.451268 -0.352191
5.260000 291.624127 1030.186024 -0.000000 0.351620 0.148582 -0.105868 -67.895249 -28.615535 -0.000000 0.268750 0.456083 -0.352388
5.265000 301.012109 977.152677 -0.000000 0.343222 0.144813 -0.105631 -71.722389 -14.342587 -0.000000 0.278100 0.460755 -0.352611
5.270000 305.454502 915.159079 -0.000000 0.334743 0.141634 -0.105500 -74.000688 1.736134 -0.000000 0.287602 0.463826 -0.352885
5.275000 305.224145 844.791246 -0.000000 0.326256 0.138888 -0.105277 -74.678486 19.481043 -0.000000 0.297160 0.466752 -0.353089
5.280000 299.814226 767.262397 -0.000000 0.317847 0.136870 -0.105077 -73.668386 38.523461 -0.000000 0.306745 0.468993 -0.353323
5.285000 290.162606 683.600251 -0.000000 0.309118 0.135525 -0.104640 -70.794958 58.506222 -0.000000 0.316191 0.470604 -0.353750
5.290000 275.489182 595.808196 -0.000000 0.300653 0.134887 -0.104533 -66.062310 78.906705 -0.000000 0.325455 0.471823 -0.354148
5.295000 257.183012 505.113204 -0.000000 0.292132 0.134971 -0.104466 -59.488583 99.597120 -0.000000 0.334419 0.472343 -0.354922
5.300000 236.134842 412.853834 -0.000000 0.283633 0.135666 -0.104393 -51.254663 120.733657 -0.000000 0.343190 0.472357 -0.355126
5.305000 213.537908 319.967315 -0.000000 0.275005 0.137057 -0.104216 -41.491257 142.855346 -0.000000 0.351850 0.471459 -0.356158
5.310000 189.439368 227.817533 -0.000000 0.266294 0.138908 -0.103959 -30.742072 166.535476 -0.000000 0.360044 0.469990 -0.356526
5.315000 164.363374 137.325836 -0.000000 0.257728 0.141400 -0.103664 -19.529015 192.357738 -0.000000 0.367916 0.468182 -0.356872
5.320000 138.674298 49.325821 -0.000000 0.249378 0.144774 -0.103592 -8.361246 220.662176 -0.000000 0.375454 0.465806 -0.357093
5.325000 112.389261 -35.106967 -0.000000 0.241221 0.148616 -0.103476 2.050003 251.443878 -0.000000 0.382590 0.462822 -0.357357
5.330000 85.296784 -114.800111 -0.000000 0.233285 0.153045 -0.103353 11.295880 284.392275 -0.000000 0.389626 0.459183 -0.357790
5.335000 57.192530 -188.074551 -0.000000 0.225788 0.157852 -0.102928 18.560119 318.939285 -0.000000 0.396459 0.454760 -0.358504
5.340000 28.184188 -253.114631 -0.000000 0.218840 0.162983 -0.102625 23.168788 354.334354 -0.000000 0.403054 0.449547 -0.358456
5.345000 -1.192414 -308.103315 -0.000000 0.212344 0.168624 -0.102517 24.598860 389.759494 -0.000000 0.409357 0.444047 -0.358070
5.350000 -30.172630 -351.459824 -0.000000 0.206268 0.174389 -0.102295 22.778494 424.475470 -0.000000 0.415325 0.437639 -0.358123
5.355000 -57.836560 -381.998440 -0.000000 0.200597 0.180803 -0.102191 18.055394 458.018770 -0.000000 0.420938 0.430454 -0.358428
5.360000 -82.491014 -399.205055 -0.000000 0.195322 0.187337 -0.102091 10.372633 490.380032 -0.000000 0.426383 0.422607 -0.358482
5.365000 -102.951255 -403.198478 -0.000000 0.190313 0.194476 -0.102057 0.598443 521.926176 -0.000000 0.431579 0.414300 -0.358451
5.370000 -117.566226 -394.979615 -0.000000 0.185732 0.201968 -0.102197 -10.983873 553.265384 -0.000000 0.436193 0.405369 -0.358580
5.375000 -125.887906 -376.043352 -0.000000 0.181375 0.210041 -0.102175 -22.805726 585.013409 -0.000000 0.440402 0.396043 -0.358670
5.380000 -127.442416 -348.617041 -0.000000 0.177339 0.218494 -0.102212 -33.900152 617.628832 -0.000000 0.444275 0.386303 -0.358576
5.385000 -122.557544 -315.257703 -0.000000 0.173820 0.227417 -0.102346 -42.991382 651.368334 -0.000000 0.447765 0.376044 -0.358413
5.390000 -111.821981 -278.785696 -0.000000 0.170160 0.236770 -0.103695 -49.523468 686.220352 -0.000000 0.450735 0.365751 -0.358288
5.395000 -96.191376 -241.953587 -0.000000 0.167626 0.246487 -0.103978 -53.786487 721.884688 -0.000000 0.453114 0.355220 -0.358122
5.400000 -77.647370 -206.843245 -0.000000 0.165652 0.256565 -0.103938 -54.618777 758.035637 -0.000000 0.455058 0.344440 -0.357854
5.405000 -58.065555 -175.038132 -0.000000 0.164253 0.267394 -0.103887 -51.095152 794.299606 -0.000000 0.456398 0.333461 -0.357825
5.410000 -38.275811 -147.692396 -0.000000 0.163611 0.277517 -0.103959 -46.874448 830.059852 -0.000000 0.457062 0.322234 -0.358141
5.415000 -20.161950 -124.788162 -0.000000 0.163420 0.288104 -0.104258 -39.993939 865.206983 -0.000000 0.457158 0.311090 -0.358303
5.420000 -4.435609 -106.070032 -0.000000 0.163910 0.298774 -0.104444 -32.324712 899.610749 -0.000000 0.456672 0.300131 -0.358728
5.425000 8.330248 -91.012215 -0.000000 0.165255 0.309279 -0.104430 -24.770367 933.503416 -0.000000 0.455888 0.289210 -0.357953
5.430000 17.777892 -79.148424 -0.000000 0.166961 0.319679 -0.104709 -17.307476 967.412127 -0.000000 0.454545 0.278183 -0.357641
5.435000 23.748800 -70.192226 -0.000000 0.169397 0.330279 -0.104962 -9.653790 1001.993194 -0.000000 0.452458 0.267248 -0.357447
5.440000 26.274304 -63.933087 -0.000000 0.172401 0.340616 -0.105169 -3.274020 1037.905221 -0.000000 0.449865 0.256358 -0.357355
5.445000 25.210639 -60.211183 -0.000000 0.176132 0.350987 -0.105469 3.217051 1075.747112 -0.000000 0.446700 0.245574 -0.357270
5.450000 20.653220 -58.677718 -0.000000 0.180471 0.361304 -0.105841 8.738670 1115.881366 -0.000000 0.442953 0.235324 -0.357138
5.455000 12.704662 -58.886374 -0.000000 0.185444 0.371434 -0.106239 15.074621 1158.335758 -0.000000 0.438511 0.225321 -0.356924
5.460000 1.790658 -60.231137 -0.000000 0.190999 0.381187 -0.106764 22.277787 1202.781930 -0.000000 0.433529 0.215623 -0.356745
5.465000 -11.513898 -62.078625 -0.000000 0.197183 0.390611 -0.107251 31.958746 1248.475631 -0.000000 0.427986 0.206222 -0.356609
